<svg xmlns="http://www.w3.org/2000/svg" width="110.066" height="72.313" viewBox="0 0 110.066 72.313">
  <g id="fence" transform="translate(1.508)">
    <path id="Path_31" data-name="Path 31" d="M1385.6,1408.969c-21.342,0-26.835,7.948-37.93,9.537s-16-2.119-16-2.119" transform="translate(-1331.676 -1392.393)" fill="none" stroke="#2c3947" stroke-width="5"/>
    <path id="Path_32" data-name="Path 32" d="M1331.676,1408.969c21.343,0,26.837,7.948,37.933,9.537s16-2.119,16-2.119" transform="translate(-1278.558 -1392.393)" fill="none" stroke="#2c3947" stroke-width="5"/>
    <path id="Path_33" data-name="Path 33" d="M1385.6,1408.969c-21.342,0-26.835,2.76-37.93,3.312s-16-.736-16-.736" transform="translate(-1331.676 -1345.432)" fill="none" stroke="#2c3947" stroke-width="5"/>
    <path id="Path_34" data-name="Path 34" d="M1331.676,1408.969c21.343,0,26.837,2.76,37.933,3.312s16-.736,16-.736" transform="translate(-1278.558 -1345.432)" fill="none" stroke="#2c3947" stroke-width="5"/>
    <g id="Group_11" data-name="Group 11" transform="translate(9.977 8.36)">
      <line id="Line_28" data-name="Line 28" y2="51.001" transform="translate(0 12.953)" fill="none" stroke="#2c3947" stroke-width="2"/>
      <line id="Line_29" data-name="Line 29" y2="55.858" transform="translate(10.524 8.095)" fill="none" stroke="#2c3947" stroke-width="2"/>
      <line id="Line_30" data-name="Line 30" y2="59.906" transform="translate(21.048 4.048)" fill="none" stroke="#2c3947" stroke-width="2"/>
      <line id="Line_31" data-name="Line 31" y2="63.954" transform="translate(32.382)" fill="none" stroke="#2c3947" stroke-width="2"/>
    </g>
    <line id="Line_32" data-name="Line 32" y2="67.192" transform="translate(53.692 5.122)" fill="none" stroke="#2c3947" stroke-width="2"/>
    <g id="Group_12" data-name="Group 12" transform="translate(64.893 8.36)">
      <line id="Line_28-2" data-name="Line 28" y2="51.001" transform="translate(32.382 12.953)" fill="none" stroke="#2c3947" stroke-width="2"/>
      <path id="Path_39" data-name="Path 39" d="M0,0V55.858" transform="translate(21.858 8.095)" fill="none" stroke="#2c3947" stroke-width="2"/>
      <line id="Line_30-2" data-name="Line 30" y2="59.906" transform="translate(11.334 4.048)" fill="none" stroke="#2c3947" stroke-width="2"/>
      <line id="Line_31-2" data-name="Line 31" y2="63.954" fill="none" stroke="#2c3947" stroke-width="2"/>
    </g>
    <path id="Path_35" data-name="Path 35" d="M1385.6,1408.969c-21.342,0-26.835,7.948-37.93,9.537s-16-2.119-16-2.119" transform="translate(-1331.676 -1384.298)" fill="none" stroke="#2c3947" stroke-width="2"/>
    <path id="Path_36" data-name="Path 36" d="M1331.676,1408.969c21.343,0,26.837,7.948,37.933,9.537s16-2.119,16-2.119" transform="translate(-1278.558 -1384.298)" fill="none" stroke="#2c3947" stroke-width="2"/>
    <path id="Path_37" data-name="Path 37" d="M1385.6,1408.969c-21.342,0-26.835,2.76-37.93,3.312s-16-.736-16-.736" transform="translate(-1331.676 -1351.908)" fill="none" stroke="#2c3947" stroke-width="2"/>
    <path id="Path_38" data-name="Path 38" d="M1331.676,1408.969c21.343,0,26.837,2.76,37.933,3.312s16-.736,16-.736" transform="translate(-1278.558 -1351.908)" fill="none" stroke="#2c3947" stroke-width="2"/>
    <g id="Ellipse_9" data-name="Ellipse 9" transform="translate(43.585 30.418)" fill="none" stroke="#2c3947" stroke-width="2">
      <circle cx="10.303" cy="10.303" r="10.303" stroke="none"/>
      <circle cx="10.303" cy="10.303" r="9.303" fill="none"/>
    </g>
    <ellipse id="Ellipse_10" data-name="Ellipse 10" cx="1.953" cy="1.962" rx="1.953" ry="1.962" transform="translate(8.279 16.681)" fill="#2c3947"/>
    <ellipse id="Ellipse_11" data-name="Ellipse 11" cx="1.953" cy="1.962" rx="1.953" ry="1.962" transform="translate(19.073 11.775)" fill="#2c3947"/>
    <circle id="Ellipse_12" data-name="Ellipse 12" cx="1.962" cy="1.962" r="1.962" transform="translate(29.867 7.85)" fill="#2c3947"/>
    <circle id="Ellipse_13" data-name="Ellipse 13" cx="1.962" cy="1.962" r="1.962" transform="translate(40.641 3.925)" fill="#2c3947"/>
    <circle id="Ellipse_14" data-name="Ellipse 14" cx="2.453" cy="2.453" r="2.453" transform="translate(51.435 0)" fill="#2c3947"/>
    <circle id="Ellipse_15" data-name="Ellipse 15" cx="1.962" cy="1.962" r="1.962" transform="translate(63.21 3.925)" fill="#2c3947"/>
    <ellipse id="Ellipse_16" data-name="Ellipse 16" cx="1.972" cy="1.962" rx="1.972" ry="1.962" transform="translate(74.985 7.85)" fill="#2c3947"/>
    <circle id="Ellipse_17" data-name="Ellipse 17" cx="1.962" cy="1.962" r="1.962" transform="translate(84.797 11.775)" fill="#2c3947"/>
    <circle id="Ellipse_18" data-name="Ellipse 18" cx="1.962" cy="1.962" r="1.962" transform="translate(95.591 16.681)" fill="#2c3947"/>
  </g>
</svg>
