<svg xmlns="http://www.w3.org/2000/svg" xmlns:xlink="http://www.w3.org/1999/xlink" width="163" height="162" viewBox="0 0 163 162">
  <defs>
    <filter id="Ellipse_5" x="0" y="0" width="163" height="162" filterUnits="userSpaceOnUse">
      <feOffset dy="3" input="SourceAlpha"/>
      <feGaussianBlur stdDeviation="3" result="blur"/>
      <feFlood flood-opacity="0.161"/>
      <feComposite operator="in" in2="blur"/>
      <feComposite in="SourceGraphic"/>
    </filter>
  </defs>
  <g id="idea" transform="translate(37.797 31.37)">
    <g transform="matrix(1, 0, 0, 1, -37.8, -31.37)" filter="url(#Ellipse_5)">
      <ellipse id="Ellipse_5-2" data-name="Ellipse 5" cx="72.5" cy="72" rx="72.5" ry="72" transform="translate(9 6)" fill="#56a9f1"/>
    </g>
    <g id="Path_14" data-name="Path 14" transform="translate(17.261 15.254)" fill="none">
      <path d="M25.29,0a25.091,25.091,0,0,1,25.29,24.888A24.959,24.959,0,0,1,35.573,47.633c-1.98.891.37,7.751-2.115,12.494C32.37,62.205,26.551,63.9,25.29,63.9c-1.277,0-6.949-1.212-8.3-3.773-2.282-4.318-.187-11.683-2.449-12.7A24.785,24.785,0,0,1,0,24.888,25.091,25.091,0,0,1,25.29,0Z" stroke="none"/>
      <path d="M 25.28951835632324 5.000003814697266 C 19.85490417480469 5.000003814697266 14.74967956542969 7.078723907470703 10.91426467895508 10.85325622558594 C 7.100399017333984 14.60659027099609 5 19.59092330932617 5 24.88809967041016 C 5 28.752685546875 6.126983642578125 32.50265884399414 8.259132385253906 35.73262023925781 C 10.33257293701172 38.87361907958984 13.21522521972656 41.33979034423828 16.59745025634766 42.86539077758789 C 20.61871910095215 44.68136596679688 20.69837188720703 49.19025802612305 20.75653076171875 52.48251342773438 C 20.78568649291992 54.13219451904297 20.82477378845215 56.34736633300781 21.29319000244141 57.53508758544922 C 21.55301094055176 57.71220779418945 22.14231109619141 58.03652572631836 23.14506530761719 58.36684417724609 C 24.01476669311523 58.65334320068359 24.80119132995605 58.8152961730957 25.20795822143555 58.87696075439453 C 25.60858154296875 58.79451751708984 26.40659141540527 58.58781051635742 27.33978462219238 58.24200439453125 C 28.29458045959473 57.88819122314453 28.90274238586426 57.56858825683594 29.22040748596191 57.37226486206055 C 29.75288391113281 55.94689178466797 29.72322082519531 53.81144714355469 29.69890594482422 52.06221771240234 C 29.65653228759766 49.01305770874023 29.59849166870117 44.83709716796875 33.52361297607422 43.07176208496094 C 37.1147575378418 41.4584846496582 40.14129257202148 38.92383193969727 42.27602386474609 35.74182891845703 C 44.4368782043457 32.5208854675293 45.57903671264648 28.76772308349609 45.57903671264648 24.88809967041016 C 45.57903671264648 19.59092330932617 43.4786376953125 14.60659027099609 39.66477203369141 10.85325622558594 C 35.8293571472168 7.078723907470703 30.7241325378418 5.000003814697266 25.28951835632324 5.000003814697266 M 25.28951835632324 3.814697265625e-06 C 39.25653076171875 3.814697265625e-06 50.57903671264648 11.14277648925781 50.57903671264648 24.88809967041016 C 50.57903671264648 34.94959259033203 44.51226425170898 43.61660385131836 35.57254409790039 47.63267135620117 C 33.5925178527832 48.523193359375 35.9423713684082 55.38344573974609 33.45719909667969 60.12684631347656 C 32.36994552612305 62.20512390136719 26.55101203918457 63.90011215209961 25.28951835632324 63.90011215209961 C 24.01209259033203 63.90011215209961 18.3402099609375 62.68803024291992 16.98865127563477 60.12684631347656 C 14.70711898803711 55.80845642089844 16.80143737792969 48.44371032714844 14.53959655761719 47.42228698730469 C 6.050304412841797 43.59305572509766 0 34.9359245300293 0 24.88809967041016 C 0 11.14277648925781 11.32250595092773 3.814697265625e-06 25.28951835632324 3.814697265625e-06 Z" stroke="none" fill="#fff"/>
    </g>
    <g id="Path_16" data-name="Path 16" transform="translate(30.107 69.044)" fill="#fff">
      <path d="M 23.02878379821777 12.1483154296875 L 1.889873147010803 12.1483154296875 L 2.556998014450073 9.286465644836426 L 2.681488037109375 8.752435684204102 L 2.43219780921936 8.264016151428223 L 1.676217198371887 6.782875061035156 L 2.444517850875854 5.206665992736816 L 2.680697917938232 4.722126007080078 L 2.554437875747681 4.198075771331787 L 1.904345989227295 1.499995827674866 L 23.01553153991699 1.499995827674866 L 22.40669822692871 4.222025871276855 L 22.29728698730469 4.711155891418457 L 22.5039176940918 5.167805671691895 L 23.23512268066406 6.783782958984375 L 22.51498794555664 8.303675651550293 L 22.29657745361328 8.764636039733887 L 22.40445709228516 9.263185501098633 L 23.02878379821777 12.1483154296875 Z" stroke="none"/>
      <path d="M 3.808687210083008 2.999996185302734 L 4.012697219848633 3.846705436706543 L 4.265237808227539 4.894805908203125 L 3.792867660522461 5.863905906677246 L 3.352443695068359 6.767458915710449 L 3.768238067626953 7.582095623016357 L 4.266817092895508 8.558925628662109 L 4.017837524414063 9.627005577087402 L 3.779760360717773 10.6483154296875 L 21.16948127746582 10.6483154296875 L 20.93839836120605 9.580435752868652 L 20.72262763977051 8.583335876464844 L 21.15943717956543 7.66140604019165 L 21.58213996887207 6.769264221191406 L 21.13730812072754 5.786175727844238 L 20.72405815124512 4.872876167297363 L 20.94286727905273 3.89460563659668 L 21.14296531677246 2.999996185302734 L 3.808687210083008 2.999996185302734 M -1.9073486328125e-06 -3.814697265625e-06 L 24.88809776306152 -3.814697265625e-06 L 23.87052726745605 4.549435615539551 L 24.88809776306152 6.798285961151123 L 23.87052726745605 8.94593620300293 L 24.88809776306152 13.6483154296875 L -1.9073486328125e-06 13.6483154296875 L 1.096168518066406 8.94593620300293 L -1.9073486328125e-06 6.798285961151123 L 1.096168518066406 4.549435615539551 L -1.9073486328125e-06 -3.814697265625e-06 Z" stroke="none" fill="#56a9f1"/>
    </g>
    <path id="Path_15" data-name="Path 15" d="M0,0H8.831L7.4,5.62H1.6Z" transform="translate(38.135 82.693)" fill="#fff"/>
    <line id="Line_14" data-name="Line 14" y1="26.494" transform="translate(42.551 42.952)" fill="none" stroke="#fff" stroke-width="3"/>
    <line id="Line_15" data-name="Line 15" y1="8.028" transform="translate(42.551 30.909)" fill="none" stroke="#fff" stroke-width="3"/>
    <line id="Line_16" data-name="Line 16" y1="5.62" x2="6.423" transform="translate(46.565 35.726)" fill="none" stroke="#fff" stroke-width="3"/>
    <line id="Line_17" data-name="Line 17" x1="6.423" y1="5.62" transform="translate(32.114 35.726)" fill="none" stroke="#fff" stroke-width="3"/>
    <path id="Path_18" data-name="Path 18" d="M0,9.233V0" transform="translate(42.551)" fill="none" stroke="#fff" stroke-width="5"/>
    <line id="Line_20" data-name="Line 20" x1="11.24" transform="translate(0 38.135)" fill="none" stroke="#fff" stroke-width="5"/>
    <path id="Path_17" data-name="Path 17" d="M8.371,6.41,0,0" transform="translate(12.043 11.24) rotate(7)" fill="none" stroke="#fff" stroke-width="5"/>
    <line id="Line_22" data-name="Line 22" y1="8.831" x2="8.028" transform="translate(64.227 10.838)" fill="none" stroke="#fff" stroke-width="5"/>
    <line id="Line_23" data-name="Line 23" x1="11.24" transform="translate(73.861 38.135)" fill="none" stroke="#fff" stroke-width="5"/>
  </g>
</svg>
