<svg xmlns="http://www.w3.org/2000/svg" xmlns:xlink="http://www.w3.org/1999/xlink" width="162" height="162" viewBox="0 0 162 162">
  <defs>
    <filter id="Ellipse_5" x="0" y="0" width="162" height="162" filterUnits="userSpaceOnUse">
      <feOffset dy="3" input="SourceAlpha"/>
      <feGaussianBlur stdDeviation="3" result="blur"/>
      <feFlood flood-opacity="0.161"/>
      <feComposite operator="in" in2="blur"/>
      <feComposite in="SourceGraphic"/>
    </filter>
  </defs>
  <g id="offer" transform="translate(9.184 6)">
    <g transform="matrix(1, 0, 0, 1, -9.18, -6)" filter="url(#Ellipse_5)">
      <circle id="Ellipse_5-2" data-name="Ellipse 5" cx="72" cy="72" r="72" transform="translate(9 6)" fill="#56a9f1"/>
    </g>
    <g id="ICON" transform="translate(34.075 45)">
      <g id="Rectangle_12" data-name="Rectangle 12" transform="translate(-0.259)" fill="none" stroke="#fff" stroke-width="5">
        <rect width="76" height="49" stroke="none"/>
        <rect x="2.5" y="2.5" width="71" height="44" fill="none"/>
      </g>
      <line id="Line_5" data-name="Line 5" x2="25.691" transform="translate(25.245 52.225)" fill="none" stroke="#fff" stroke-width="5"/>
      <line id="Line_6" data-name="Line 6" x2="44.156" transform="translate(15.611 58.647)" fill="none" stroke="#fff" stroke-width="5"/>
      <rect id="Rectangle_13" data-name="Rectangle 13" width="4" height="4" transform="translate(62.741 46)" fill="#56a9f1"/>
      <g id="PEN" transform="translate(9.114 32.898) rotate(-30)">
        <g id="Path_8" data-name="Path 8" transform="translate(13.23 0.013)" fill="none">
          <path d="M0,.251l39.2-.213,1.4,2.814V8.092l-1.4,3.185-39.2-.37L.537,8.092V2.851Z" stroke="none"/>
          <path d="M 37.97023773193359 2.044344902038574 L 2.452903747558594 2.23772144317627 L 2.496337890625 2.449684143066406 L 2.53704833984375 2.648353576660156 L 2.53704833984375 2.851154327392578 L 2.53704833984375 8.092453956604004 L 2.53704833984375 8.277904510498047 L 2.502948760986328 8.460184097290039 L 2.415035247802734 8.930152893066406 L 37.90554809570313 9.264999389648438 L 38.60395812988281 7.673035144805908 L 38.60395812988281 3.320435523986816 L 37.97023773193359 2.044344902038574 M 39.20670700073242 0.03758430480957031 L 40.60395812988281 2.851154327392578 L 40.60395812988281 8.092453956604004 L 39.20670700073242 11.27736377716064 L 0.010467529296875 10.90755367279053 L 0.53704833984375 8.092453956604004 L 0.53704833984375 2.851154327392578 L 0.004268646240234375 0.2510242462158203 L 39.20670700073242 0.03758430480957031 Z" stroke="none" fill="#fff"/>
        </g>
        <path id="Path_9" data-name="Path 9" d="M0,.037H38.61" transform="translate(14.633 3.735)" fill="none" stroke="#fff" stroke-width="1"/>
        <g id="Path_7" data-name="Path 7" transform="translate(0.481 10.771) rotate(-90)" fill="none">
          <path d="M5.207,0,6.513,3.009l3.912,9.028-2.984.55H2.666l-2.677-.55Z" stroke="none"/>
          <path d="M 5.20693302154541 5.02508544921875 L 2.802351474761963 10.57412242889404 L 2.869015216827393 10.58782196044922 L 7.258174419403076 10.58782196044922 L 7.590873241424561 10.52648735046387 L 5.20693302154541 5.02508544921875 M 5.206933498382568 -0.00499725341796875 L 6.5130934715271 3.009222030639648 L 10.4254035949707 12.03763198852539 L 7.441013336181641 12.58782196044922 L 2.665613651275635 12.58782196044922 L -0.01153659820556641 12.03763198852539 L 5.206933498382568 -0.00499725341796875 Z" stroke="none" fill="#fff"/>
        </g>
        <line id="Line_8" data-name="Line 8" y2="2.409" transform="translate(4.797 4.335)" fill="none" stroke="#fff" stroke-width="2"/>
        <path id="Path_10" data-name="Path 10" d="M0,.036H37.9" transform="translate(14.712 9.521)" fill="none" stroke="#fff" stroke-width="3"/>
        <line id="Line_10" data-name="Line 10" x1="7.677" y2="2.057" transform="translate(4.393 3.327)" fill="none" stroke="#fff" stroke-width="1"/>
        <line id="Line_11" data-name="Line 11" x1="6.659" y1="2.918" transform="translate(5.088 5.786)" fill="none" stroke="#fff" stroke-width="2"/>
        <line id="Line_9" data-name="Line 9" x1="51.382" transform="translate(0.006 6.56) rotate(30)" fill="none" stroke="#fff" stroke-width="1"/>
        <line id="Line_12" data-name="Line 12" x2="1.606" y2="2.409" transform="translate(6.293 3.7) rotate(30)" fill="none" stroke="#fff" stroke-width="3"/>
      </g>
    </g>
  </g>
</svg>
