<?xml version="1.0" encoding="utf-8"?>
<!-- Generator: Adobe Illustrator 22.0.0, SVG Export Plug-In . SVG Version: 6.00 Build 0)  -->
<svg version="1.1" id="Warstwa_1" xmlns="http://www.w3.org/2000/svg" xmlns:xlink="http://www.w3.org/1999/xlink" x="0px" y="0px"
	 viewBox="0 0 32 32" style="enable-background:new 0 0 32 32;" xml:space="preserve">
<style type="text/css">
	.st0{fill:#3F3F3F;}
</style>
<path class="st0" d="M9,4c0,0-1,0-1.9,0.5C6.1,5,5,6.1,5,8h2c0-1.2,0.4-1.5,0.9-1.8S9,6,9,6h0c1.1,0,1.4,0.4,1.7,1S11,8,11,8
	s0,0.5-0.3,1C10.5,9.6,10.2,10,9,10H8v1v2h2v-1.3c1.2-0.3,2.2-1,2.6-1.8C13,8.9,13,8,13,8s0-1-0.5-1.9C12,5.1,10.8,4,9,4
	C9,4,9,4,9,4z M16,4c-0.8,0-1.5,0.1-2.3,0.2c0.4,0.6,0.8,1.2,1,1.9C15.1,6,15.6,6,16,6c5.5,0,10,4.5,10,10s-4.5,10-10,10
	S6,21.5,6,16c0-0.4,0-0.7,0.1-1.1V13v-3H5.6c-1,1.8-1.6,3.8-1.6,6c0,6.6,5.4,12,12,12s12-5.4,12-12S22.6,4,16,4z M14.5,12
	c-0.8,0-1.5,0.7-1.5,1.5s0.7,1.5,1.5,1.5s1.5-0.7,1.5-1.5S15.3,12,14.5,12z M21.5,12c-0.8,0-1.5,0.7-1.5,1.5s0.7,1.5,1.5,1.5
	s1.5-0.7,1.5-1.5S22.3,12,21.5,12z M8,14v2h2v-2H8z M23,18c-7,0-11,3.5-11,3.5l1.3,1.5c0,0,3.3-3,9.7-3V18z"/>
</svg>
